<svg width="21" height="20" viewBox="0 0 21 20" fill="none" 
xmlns="http://www.w3.org/2000/svg"> <path d="M13.0143 17.4947V11.7436H14.9585L15.2493 
9.50785H13.0143V8.08121C13.0143 7.43394 13.196 6.99225 14.1327 
6.99225H15.3277V4.99265C14.7492 4.93184 14.1677 4.90235 13.586 4.90431C11.8635 4.90431 
10.6843 5.94621 10.6843 7.85995V9.50785H8.73601V11.7436H10.6843V17.4947H3.51268C3.29167 
17.4947 3.07971 17.4077 2.92343 17.2529C2.76715 17.098 2.67935 16.8881 2.67935 
16.6691V3.45951C2.67935 3.24055 2.76715 3.03055 2.92343 2.87572C3.07971 2.72089 3.29167 
2.63391 3.51268 2.63391H16.846C17.067 2.63391 17.279 2.72089 17.4352 2.87572C17.5915 3.03055 
17.6793 3.24055 17.6793 3.45951V16.6691C17.6793 16.8881 17.5915 17.098 17.4352 
17.2529C17.279 17.4077 17.067 17.4947 16.846 17.4947H13.0143Z" fill="#0f0f0f"/> </svg>
