<svg width="20" height="20" viewBox="0 0 20 20" fill="none" 
xmlns="http://www.w3.org/2000/svg"> <path d="M9.99992 7.58752C9.33688 7.58752 8.701 7.84846 
8.23215 8.31295C7.76331 8.77744 7.49992 9.40742 7.49992 10.0643C7.49992 10.7212 7.76331 
11.3512 8.23215 11.8157C8.701 12.2801 9.33688 12.5411 9.99992 12.5411C10.663 12.5411 11.2989 
12.2801 11.7677 11.8157C12.2365 11.3512 12.4999 10.7212 12.4999 10.0643C12.4999 9.40742 
12.2365 8.77744 11.7677 8.31295C11.2989 7.84846 10.663 7.58752 9.99992 7.58752ZM9.99992 
5.93633C11.105 5.93633 12.1648 6.37124 12.9462 7.14538C13.7276 7.91953 14.1666 8.96949 
14.1666 10.0643C14.1666 11.1591 13.7276 12.2091 12.9462 12.9832C12.1648 13.7574 11.105 
14.1923 9.99992 14.1923C8.89485 14.1923 7.83504 13.7574 7.05364 12.9832C6.27224 12.2091 
5.83325 11.1591 5.83325 10.0643C5.83325 8.96949 6.27224 7.91953 7.05364 7.14538C7.83504 
6.37124 8.89485 5.93633 9.99992 5.93633ZM15.4166 5.72993C15.4166 6.00363 15.3069 6.26612 
15.1115 6.45966C14.9161 6.65319 14.6512 6.76192 14.3749 6.76192C14.0987 6.76192 13.8337 
6.65319 13.6384 6.45966C13.443 6.26612 13.3333 6.00363 13.3333 5.72993C13.3333 5.45622 
13.443 5.19373 13.6384 5.0002C13.8337 4.80666 14.0987 4.69793 14.3749 4.69793C14.6512 
4.69793 14.9161 4.80666 15.1115 5.0002C15.3069 5.19373 15.4166 5.45622 15.4166 
5.72993ZM9.99992 3.45954C7.93825 3.45954 7.60159 3.46532 6.64242 3.50742C5.98909 3.53797 
5.55075 3.62466 5.14408 3.78152C4.78242 3.92022 4.52158 4.08617 4.24408 4.36192C3.98326 
4.61157 3.78271 4.91637 3.65742 5.25356C3.49908 5.6581 3.41158 6.09154 3.38158 
6.73798C3.33825 7.64944 3.33325 7.96811 3.33325 10.0643C3.33325 12.1068 3.33908 12.4404 
3.38158 13.3906C3.41242 14.0371 3.49992 14.4722 3.65742 14.8742C3.79908 15.2334 3.96575 
15.4918 4.24242 15.7659C4.52325 16.0433 4.78408 16.2092 5.14242 16.3463C5.55408 16.5039 
5.99242 16.5915 6.64242 16.6212C7.56242 16.6641 7.88409 16.6691 9.99992 16.6691C12.0616 
16.6691 12.3983 16.6633 13.3574 16.6212C14.0091 16.5906 14.4483 16.5039 14.8549 
16.3479C15.2158 16.2084 15.4783 16.0424 15.7549 15.7683C16.0358 15.4901 16.2033 15.2317 
16.3416 14.8767C16.4999 14.4697 16.5883 14.0346 16.6183 13.3906C16.6616 12.4792 16.6666 
12.1605 16.6666 10.0643C16.6666 8.02178 16.6608 7.68824 16.6183 6.73798C16.5874 6.09236 
16.4999 5.65645 16.3416 5.25356C16.216 4.91672 16.0158 4.61204 15.7558 4.36192C15.5039 
4.10338 15.1962 3.90467 14.8558 3.7807C14.4474 3.62383 14.0091 3.53715 13.3574 
3.50742C12.4374 3.46449 12.1158 3.45954 9.99992 3.45954ZM9.99992 1.80835C12.2641 1.80835 
12.5466 1.81661 13.4349 1.85789C14.3224 1.89917 14.9266 2.03704 15.4583 2.24179C16.0083 
2.45149 16.4716 2.73549 16.9349 3.1937C17.3587 3.60641 17.6866 4.10564 17.8958 
4.65665C18.1016 5.18256 18.2416 5.78194 18.2833 6.6612C18.3224 7.54128 18.3333 7.82116 
18.3333 10.0643C18.3333 12.3074 18.3249 12.5873 18.2833 13.4674C18.2416 14.3467 18.1016 
14.9452 17.8958 15.4719C17.6872 16.0233 17.3592 16.5226 16.9349 16.9349C16.5182 17.3546 
16.0144 17.6794 15.4583 17.8868C14.9274 18.0907 14.3224 18.2294 13.4349 18.2707C12.5466 
18.3095 12.2641 18.3203 9.99992 18.3203C7.73575 18.3203 7.45325 18.312 6.56492 
18.2707C5.67742 18.2294 5.07325 18.0907 4.54158 17.8868C3.98519 17.68 3.48119 17.3551 
3.06492 16.9349C2.64109 16.5223 2.31319 16.023 2.10408 15.4719C1.89741 14.946 1.75825 
14.3467 1.71658 13.4674C1.67741 12.5873 1.66658 12.3074 1.66658 10.0643C1.66658 7.82116 
1.67491 7.54128 1.71658 6.6612C1.75825 5.78111 1.89741 5.18338 2.10408 4.65665C2.31261 
4.1053 2.64058 3.60594 3.06492 3.1937C3.48131 2.77366 3.98527 2.44879 4.54158 
2.24179C5.07325 2.03704 5.67658 1.89917 6.56492 1.85789C7.45325 1.81908 7.73575 1.80835 
9.99992 1.80835Z" fill="#0f0f0f"/> </svg>
