<svg width="17" height="17" viewBox="0 0 17 17" fill="none" 
xmlns="http://www.w3.org/2000/svg"> <path d="M2.83335 4.54326L0.536224 2.24684L1.53852 
1.24455L3.83493 3.54168H14.6314C14.7418 3.54167 14.8506 3.56747 14.9493 3.61702C15.048 
3.66657 15.1337 3.7385 15.1996 3.82706C15.2655 3.91563 15.3098 4.01837 15.329 
4.12711C15.3481 4.23584 15.3416 4.34754 15.3099 4.4533L13.6099 10.12C13.5662 10.2659 13.4766 
10.3939 13.3543 10.4849C13.2321 10.5759 13.0837 10.625 12.9314 
10.625H4.25002V12.0417H12.0417V13.4583H3.54168C3.35382 13.4583 3.17365 13.3837 3.04082 
13.2509C2.90798 13.118 2.83335 12.9379 2.83335 12.75V4.54326ZM3.89585 16.2917C3.61406 
16.2917 3.34381 16.1797 3.14455 15.9805C2.94529 15.7812 2.83335 15.511 2.83335 
15.2292C2.83335 14.9474 2.94529 14.6771 3.14455 14.4779C3.34381 14.2786 3.61406 14.1667 
3.89585 14.1667C4.17764 14.1667 4.44789 14.2786 4.64715 14.4779C4.84641 14.6771 4.95835 
14.9474 4.95835 15.2292C4.95835 15.511 4.84641 15.7812 4.64715 15.9805C4.44789 16.1797 
4.17764 16.2917 3.89585 16.2917ZM12.3959 16.2917C12.1141 16.2917 11.8438 16.1797 11.6445 
15.9805C11.4453 15.7812 11.3334 15.511 11.3334 15.2292C11.3334 14.9474 11.4453 14.6771 
11.6445 14.4779C11.8438 14.2786 12.1141 14.1667 12.3959 14.1667C12.6776 14.1667 12.9479 
14.2786 13.1472 14.4779C13.3464 14.6771 13.4584 14.9474 13.4584 15.2292C13.4584 15.511 
13.3464 15.7812 13.1472 15.9805C12.9479 16.1797 12.6776 16.2917 12.3959 16.2917Z" 
fill="#0f0f0f"/> </svg>
